<?xml version="1.0" encoding="UTF-8" standalone="no"?>
<!-- Generator: Adobe Illustrator 22.1.0, SVG Export Plug-In . SVG Version: 6.00 Build 0)  -->

<svg
   xmlns:dc="http://purl.org/dc/elements/1.1/"
   xmlns:cc="http://creativecommons.org/ns#"
   xmlns:rdf="http://www.w3.org/1999/02/22-rdf-syntax-ns#"
   xmlns:svg="http://www.w3.org/2000/svg"
   xmlns="http://www.w3.org/2000/svg"
   xmlns:xlink="http://www.w3.org/1999/xlink"
   xmlns:sodipodi="http://sodipodi.sourceforge.net/DTD/sodipodi-0.dtd"
   xmlns:inkscape="http://www.inkscape.org/namespaces/inkscape"
   version="1.1"
   id="Ebene_1"
   x="0px"
   y="0px"
   viewBox="0 0 500 500"
   xml:space="preserve"
   inkscape:version="0.91 r13725"
   sodipodi:docname="plusb-icon.svg"
   width="500"
   height="500"><metadata
     id="metadata21"><rdf:RDF><cc:Work
         rdf:about=""><dc:format>image/svg+xml</dc:format><dc:type
           rdf:resource="http://purl.org/dc/dcmitype/StillImage" /><dc:title></dc:title></cc:Work></rdf:RDF></metadata><defs
     id="defs19" /><sodipodi:namedview
     pagecolor="#ffffff"
     bordercolor="#666666"
     borderopacity="1"
     objecttolerance="10"
     gridtolerance="10"
     guidetolerance="10"
     inkscape:pageopacity="0"
     inkscape:pageshadow="2"
     inkscape:window-width="1313"
     inkscape:window-height="753"
     id="namedview17"
     showgrid="false"
     inkscape:zoom="1.45"
     inkscape:cx="326.17437"
     inkscape:cy="258"
     inkscape:window-x="0"
     inkscape:window-y="0"
     inkscape:window-maximized="0"
     inkscape:current-layer="Ebene_1" /><style
     type="text/css"
     id="style3">
	.st0{clip-path:url(#SVGID_2_);fill:#FF8827;}
</style><g
     id="g5"
     transform="matrix(0.97732591,0,0,0.97732591,-536.74733,-1.4659884)"><defs
       id="defs7"><rect
         id="SVGID_1_"
         x="1.5"
         y="1.5"
         width="1059.3"
         height="511.70001" /></defs><clipPath
       id="SVGID_2_"><use
         xlink:href="#SVGID_1_"
         style="overflow:visible"
         id="use11"
         x="0"
         y="0"
         width="100%"
         height="100%" /></clipPath><path
       class="st0"
       d="M 860.4,199.2 C 860.4,177 849.6,166 828,166 l -50,0 0,66.5 50.5,0 c 21.3,0 31.9,-11.1 31.9,-33.3 M 857,340.8 c 5.9,-4.9 8.8,-13.9 8.8,-27.1 0,-22.4 -12,-33.6 -36.1,-33.6 l -51.7,0 0,68.1 51.7,0 c 12.3,0 21.4,-2.5 27.3,-7.4 M 887.1,253 c 12.3,5.2 21.4,12.7 27.3,22.6 5.9,9.8 8.8,23.5 8.8,41 0,27.1 -7.9,47.2 -23.8,60.3 -15.9,13.1 -38.2,19.7 -66.9,19.7 l -111.1,0 0,-279 109.5,0 c 29,0 50.7,5.8 65.2,17.4 14.5,11.6 21.7,30.4 21.7,56.4 0,15.6 -2.3,28 -7,37.1 -4.5,9.2 -12.5,17.4 -23.7,24.5 m 173.7,4.4 C 1060.8,116.1 946.3,1.5 805,1.5 c -99.5,0 -185.5,56.9 -227.8,139.8 43.8,20.3 74.3,64.6 74.3,116 0,51.4 -30.5,95.7 -74.3,116 42.3,82.9 128.3,139.8 227.8,139.8 141.3,0.1 255.8,-114.4 255.8,-255.7"
       id="path13"
       clip-path="url(#SVGID_2_)"
       inkscape:connector-curvature="0"
       style="fill:#ff8827" /></g></svg>